# xmcd CD database file
#
# Track frame offsets:
#	150
#	13687
#	35452
#	51465
#	66585
#	79522
#	96247
#	113225
#	127087
#	140185
#	163654
#	181478
#	199036
#	218832
#	234172
#	253664
#	269076
#	286978
#	306151
#	325410
#
# Disc length: 4546 seconds
#
# Revision: 0
# Processed by: cddbd v1.5.2PL0 Copyright (c) Steve Scherf et al.
# Submitted via: CDex 1.51
#
DISCID=3811c014
DTITLE=Trevino, Rick - In My Dreams - Whole Town Blue
DYEAR=2011
DGENRE=Country
TTITLE0=Overnight Success
TTITLE1=In My Dreams
TTITLE2=She'll Never Know
TTITLE3=Downside of Love
TTITLE4=Beautiful Day
TTITLE5=Olivia
TTITLE6=Are We Almost There
TTITLE7=Heartaches
TTITLE8=So Over
TTITLE9=Have You Really Loved A Woman
TTITLE10=Better in Texas
TTITLE11=Seperate Ways
TTITLE12=Whole Town Blue
TTITLE13=Fool for Lesser Things
TTITLE14=Cousin Paul
TTITLE15=Loving You Makes Me A Better Man
TTITLE16=Because of You
TTITLE17=Autumn Rose
TTITLE18=Remember the Alimony
TTITLE19=Matter Much
EXTD=YEAR: 2011
EXTT0=
EXTT1=
EXTT2=
EXTT3=
EXTT4=
EXTT5=
EXTT6=
EXTT7=
EXTT8=
EXTT9=
EXTT10=
EXTT11=
EXTT12=
EXTT13=
EXTT14=
EXTT15=
EXTT16=
EXTT17=
EXTT18=
EXTT19=
PLAYORDER=
